# xmcd CD database file
#
# Track frame offsets:
#	150
#	44528
#	64620
#	84434
#	127426
#	141963
#	162994
#	190154
#	241742
#	296782
#
# Disc length: 4503 seconds
#
# Revision: 0
# Processed by: cddbd v1.5.2PL0 Copyright (c) Steve Scherf et al.
# Submitted via: CDex 1.70beta2
#
DISCID=9611950a
DTITLE=Cannonball Adderley - Complete Live in Tokyo 1963 [CD1)
DYEAR=1963
DGENRE=Jazz
TTITLE0=The Jive Samba
TTITLE1=Bohemia After Dark
TTITLE2=Work Song
TTITLE3=Angel Eyes
TTITLE4=Easy To Love
TTITLE5=P Bouk
TTITLE6=Dizzy's Business
TTITLE7=Dis Here
TTITLE8=Primitivo
TTITLE9=Work Song #2
EXTD=YEAR: 1963
EXTT0=
EXTT1=
EXTT2=
EXTT3=
EXTT4=
EXTT5=
EXTT6=
EXTT7=
EXTT8=
EXTT9=
PLAYORDER=
